<svg xmlns="http://www.w3.org/2000/svg" version="1.1" xmlns:xlink="http://www.w3.org/1999/xlink" width="512" height="512" x="0" y="0" viewBox="0 0 512 512" style="enable-background:new 0 0 512 512" xml:space="preserve"><g><path d="M256 181 15 98l241-83 241 83zM106.5 130.51V283c17.89 7.3 36.17 13.23 54.71 17.8M405.5 130.51V283a394.972 394.972 0 0 1-54.71 17.8M497 98v98" style="stroke-width:30;stroke-linecap:round;stroke-linejoin:round;stroke-miterlimit:10;" fill="none" stroke="#ffffff" stroke-width="30" stroke-linecap="round" stroke-linejoin="round" stroke-miterlimit="10" data-original="#000000" opacity="1"></path><circle cx="256" cy="376" r="121" style="stroke-width:30;stroke-linecap:round;stroke-linejoin:round;stroke-miterlimit:10;" fill="none" stroke="#ffffff" stroke-width="30" stroke-linecap="round" stroke-linejoin="round" stroke-miterlimit="10" data-original="#000000" opacity="1"></circle><path d="M285.147 336.304s-17.933-15.074-39.08-8.704c-19.418 5.849-22.134 28.239-8.086 37.398 0 0 13.785 6.15 29.074 11.789 36.805 13.576 20.951 49.182-8.678 49.182-14.837 0-27.29-6.498-34.827-14.814M256 310v13.082M256 442v-13.082" style="stroke-width:30;stroke-linecap:round;stroke-linejoin:round;stroke-miterlimit:10;" fill="none" stroke="#ffffff" stroke-width="30" stroke-linecap="round" stroke-linejoin="round" stroke-miterlimit="10" data-original="#000000" opacity="1"></path></g></svg>